<mxfile host="app.diagrams.net" modified="2021-04-02T05:21:53.549Z" agent="5.0 (Windows NT 10.0; Win64; x64) AppleWebKit/537.36 (KHTML, like Gecko) Chrome/89.0.4389.90 Safari/537.36" etag="YnTBYrgrUGaXP-cFio9N" version="14.5.1" type="github">
  <diagram id="EB5KeY8yTKSULK9u3PmZ" name="Page-1">
    <mxGraphModel dx="2401" dy="2056" grid="1" gridSize="10" guides="1" tooltips="1" connect="1" arrows="1" fold="1" page="1" pageScale="1" pageWidth="827" pageHeight="1169" math="0" shadow="1">
      <root>
        <mxCell id="0" />
        <mxCell id="1" parent="0" />
        <mxCell id="UEV6acI5vKv-Rn__tow0-1" value="" style="ellipse;whiteSpace=wrap;html=1;aspect=fixed;shadow=1;sketch=1;" vertex="1" parent="1">
          <mxGeometry x="310" y="100" width="320" height="320" as="geometry" />
        </mxCell>
        <mxCell id="UEV6acI5vKv-Rn__tow0-2" value="&lt;font style=&quot;font-size: 36px&quot;&gt;Sistem Penjualan Minimarket&lt;/font&gt;" style="text;html=1;strokeColor=none;fillColor=none;align=center;verticalAlign=middle;whiteSpace=wrap;rounded=0;sketch=0;" vertex="1" parent="1">
          <mxGeometry x="300" y="160" width="340" height="190" as="geometry" />
        </mxCell>
        <mxCell id="UEV6acI5vKv-Rn__tow0-4" value="" style="rounded=1;whiteSpace=wrap;html=1;sketch=0;" vertex="1" parent="1">
          <mxGeometry x="-130" y="100" width="200" height="110" as="geometry" />
        </mxCell>
        <mxCell id="UEV6acI5vKv-Rn__tow0-5" value="&lt;font style=&quot;font-size: 36px&quot;&gt;Keuangan&lt;/font&gt;" style="text;html=1;strokeColor=none;fillColor=none;align=center;verticalAlign=middle;whiteSpace=wrap;rounded=0;sketch=0;" vertex="1" parent="1">
          <mxGeometry x="-200" y="50" width="340" height="190" as="geometry" />
        </mxCell>
        <mxCell id="UEV6acI5vKv-Rn__tow0-7" value="" style="rounded=1;whiteSpace=wrap;html=1;sketch=0;" vertex="1" parent="1">
          <mxGeometry x="-130" y="360" width="200" height="110" as="geometry" />
        </mxCell>
        <mxCell id="UEV6acI5vKv-Rn__tow0-8" value="&lt;font style=&quot;font-size: 36px&quot;&gt;Karyawan&lt;/font&gt;" style="text;html=1;strokeColor=none;fillColor=none;align=center;verticalAlign=middle;whiteSpace=wrap;rounded=0;sketch=0;" vertex="1" parent="1">
          <mxGeometry x="-200" y="310" width="340" height="190" as="geometry" />
        </mxCell>
        <mxCell id="UEV6acI5vKv-Rn__tow0-9" value="" style="rounded=1;whiteSpace=wrap;html=1;sketch=0;" vertex="1" parent="1">
          <mxGeometry x="370" y="570" width="200" height="110" as="geometry" />
        </mxCell>
        <mxCell id="UEV6acI5vKv-Rn__tow0-10" value="&lt;font style=&quot;font-size: 36px&quot;&gt;Konsumen&lt;/font&gt;" style="text;html=1;strokeColor=none;fillColor=none;align=center;verticalAlign=middle;whiteSpace=wrap;rounded=0;sketch=0;" vertex="1" parent="1">
          <mxGeometry x="300" y="520" width="340" height="190" as="geometry" />
        </mxCell>
        <mxCell id="UEV6acI5vKv-Rn__tow0-11" value="" style="rounded=1;whiteSpace=wrap;html=1;sketch=0;" vertex="1" parent="1">
          <mxGeometry x="360" y="-150" width="200" height="110" as="geometry" />
        </mxCell>
        <mxCell id="UEV6acI5vKv-Rn__tow0-12" value="&lt;font style=&quot;font-size: 36px&quot;&gt;Supplier&lt;/font&gt;" style="text;html=1;strokeColor=none;fillColor=none;align=center;verticalAlign=middle;whiteSpace=wrap;rounded=0;sketch=0;" vertex="1" parent="1">
          <mxGeometry x="290" y="-200" width="340" height="190" as="geometry" />
        </mxCell>
        <mxCell id="UEV6acI5vKv-Rn__tow0-14" value="" style="rounded=1;whiteSpace=wrap;html=1;sketch=0;" vertex="1" parent="1">
          <mxGeometry x="800" y="210" width="200" height="110" as="geometry" />
        </mxCell>
        <mxCell id="UEV6acI5vKv-Rn__tow0-15" value="&lt;font style=&quot;font-size: 36px&quot;&gt;Manager&lt;/font&gt;" style="text;html=1;strokeColor=none;fillColor=none;align=center;verticalAlign=middle;whiteSpace=wrap;rounded=0;sketch=0;" vertex="1" parent="1">
          <mxGeometry x="730" y="150" width="340" height="190" as="geometry" />
        </mxCell>
        <mxCell id="UEV6acI5vKv-Rn__tow0-16" value="" style="endArrow=classic;html=1;entryX=0.412;entryY=0.842;entryDx=0;entryDy=0;entryPerimeter=0;" edge="1" parent="1" target="UEV6acI5vKv-Rn__tow0-12">
          <mxGeometry width="50" height="50" relative="1" as="geometry">
            <mxPoint x="430" y="107" as="sourcePoint" />
            <mxPoint x="570" y="170" as="targetPoint" />
          </mxGeometry>
        </mxCell>
        <mxCell id="UEV6acI5vKv-Rn__tow0-17" value="&lt;font style=&quot;font-size: 18px&quot;&gt;Data Order&lt;/font&gt;" style="text;html=1;strokeColor=none;fillColor=none;align=center;verticalAlign=middle;whiteSpace=wrap;rounded=0;sketch=0;fontStyle=1" vertex="1" parent="1">
          <mxGeometry x="310" width="104" height="50" as="geometry" />
        </mxCell>
        <mxCell id="UEV6acI5vKv-Rn__tow0-19" value="" style="endArrow=classic;html=1;exitX=0.606;exitY=0.842;exitDx=0;exitDy=0;exitPerimeter=0;" edge="1" parent="1" source="UEV6acI5vKv-Rn__tow0-12">
          <mxGeometry width="50" height="50" relative="1" as="geometry">
            <mxPoint x="496" y="107.02" as="sourcePoint" />
            <mxPoint x="496" y="100" as="targetPoint" />
          </mxGeometry>
        </mxCell>
        <mxCell id="UEV6acI5vKv-Rn__tow0-20" value="&lt;font style=&quot;font-size: 18px&quot;&gt;Data Pengiriman&lt;/font&gt;" style="text;html=1;strokeColor=none;fillColor=none;align=center;verticalAlign=middle;whiteSpace=wrap;rounded=0;sketch=0;fontStyle=1" vertex="1" parent="1">
          <mxGeometry x="500" width="170" height="50" as="geometry" />
        </mxCell>
        <mxCell id="UEV6acI5vKv-Rn__tow0-21" value="" style="endArrow=classic;html=1;" edge="1" parent="1">
          <mxGeometry width="50" height="50" relative="1" as="geometry">
            <mxPoint x="320" y="230" as="sourcePoint" />
            <mxPoint x="70" y="145" as="targetPoint" />
            <Array as="points">
              <mxPoint x="200" y="230" />
              <mxPoint x="200" y="145" />
            </Array>
          </mxGeometry>
        </mxCell>
        <mxCell id="UEV6acI5vKv-Rn__tow0-22" value="&lt;font style=&quot;font-size: 18px&quot;&gt;Data Transaksi&lt;/font&gt;" style="text;html=1;strokeColor=none;fillColor=none;align=center;verticalAlign=middle;whiteSpace=wrap;rounded=0;sketch=0;fontStyle=1" vertex="1" parent="1">
          <mxGeometry x="100" y="100" width="170" height="50" as="geometry" />
        </mxCell>
        <mxCell id="UEV6acI5vKv-Rn__tow0-24" value="" style="endArrow=classic;html=1;entryX=0.412;entryY=0.842;entryDx=0;entryDy=0;entryPerimeter=0;" edge="1" parent="1">
          <mxGeometry width="50" height="50" relative="1" as="geometry">
            <mxPoint x="433" y="567.02" as="sourcePoint" />
            <mxPoint x="433.0799999999999" y="419.9999999999998" as="targetPoint" />
          </mxGeometry>
        </mxCell>
        <mxCell id="UEV6acI5vKv-Rn__tow0-25" value="&lt;font style=&quot;font-size: 18px&quot;&gt;Data Pembelian&lt;/font&gt;" style="text;html=1;strokeColor=none;fillColor=none;align=center;verticalAlign=middle;whiteSpace=wrap;rounded=0;sketch=0;fontStyle=1" vertex="1" parent="1">
          <mxGeometry x="270" y="460.02" width="160" height="50" as="geometry" />
        </mxCell>
        <mxCell id="UEV6acI5vKv-Rn__tow0-26" value="" style="endArrow=classic;html=1;exitX=0.606;exitY=0.842;exitDx=0;exitDy=0;exitPerimeter=0;" edge="1" parent="1">
          <mxGeometry width="50" height="50" relative="1" as="geometry">
            <mxPoint x="499.03999999999996" y="419.9999999999998" as="sourcePoint" />
            <mxPoint x="499" y="560.02" as="targetPoint" />
          </mxGeometry>
        </mxCell>
        <mxCell id="UEV6acI5vKv-Rn__tow0-27" value="&lt;span style=&quot;font-size: 18px&quot;&gt;Nota&lt;/span&gt;" style="text;html=1;strokeColor=none;fillColor=none;align=center;verticalAlign=middle;whiteSpace=wrap;rounded=0;sketch=0;fontStyle=1" vertex="1" parent="1">
          <mxGeometry x="500" y="460.02" width="80" height="50" as="geometry" />
        </mxCell>
        <mxCell id="UEV6acI5vKv-Rn__tow0-28" value="" style="endArrow=classic;html=1;exitX=0.794;exitY=0.632;exitDx=0;exitDy=0;exitPerimeter=0;" edge="1" parent="1" source="UEV6acI5vKv-Rn__tow0-5">
          <mxGeometry width="50" height="50" relative="1" as="geometry">
            <mxPoint x="370" y="220" as="sourcePoint" />
            <mxPoint x="310" y="255" as="targetPoint" />
            <Array as="points">
              <mxPoint x="170" y="170" />
              <mxPoint x="170" y="255" />
            </Array>
          </mxGeometry>
        </mxCell>
        <mxCell id="UEV6acI5vKv-Rn__tow0-29" value="&lt;font style=&quot;font-size: 18px&quot;&gt;Laporan&lt;/font&gt;" style="text;html=1;strokeColor=none;fillColor=none;align=center;verticalAlign=middle;whiteSpace=wrap;rounded=0;sketch=0;fontStyle=1" vertex="1" parent="1">
          <mxGeometry x="90" y="170" width="80" height="50" as="geometry" />
        </mxCell>
        <mxCell id="UEV6acI5vKv-Rn__tow0-30" value="" style="endArrow=classic;html=1;entryX=0.206;entryY=0.474;entryDx=0;entryDy=0;entryPerimeter=0;exitX=0.971;exitY=0.421;exitDx=0;exitDy=0;exitPerimeter=0;" edge="1" parent="1" source="UEV6acI5vKv-Rn__tow0-2" target="UEV6acI5vKv-Rn__tow0-15">
          <mxGeometry width="50" height="50" relative="1" as="geometry">
            <mxPoint x="370" y="400" as="sourcePoint" />
            <mxPoint x="420" y="350" as="targetPoint" />
          </mxGeometry>
        </mxCell>
        <mxCell id="UEV6acI5vKv-Rn__tow0-31" value="&lt;font style=&quot;font-size: 18px&quot;&gt;Laporan&lt;/font&gt;" style="text;html=1;strokeColor=none;fillColor=none;align=center;verticalAlign=middle;whiteSpace=wrap;rounded=0;sketch=0;fontStyle=1" vertex="1" parent="1">
          <mxGeometry x="680" y="200" width="80" height="50" as="geometry" />
        </mxCell>
        <mxCell id="UEV6acI5vKv-Rn__tow0-33" value="" style="endArrow=classic;html=1;exitX=0.206;exitY=0.737;exitDx=0;exitDy=0;exitPerimeter=0;" edge="1" parent="1" source="UEV6acI5vKv-Rn__tow0-15">
          <mxGeometry width="50" height="50" relative="1" as="geometry">
            <mxPoint x="370" y="220" as="sourcePoint" />
            <mxPoint x="630" y="290" as="targetPoint" />
          </mxGeometry>
        </mxCell>
        <mxCell id="UEV6acI5vKv-Rn__tow0-34" value="&lt;font style=&quot;font-size: 18px&quot;&gt;Informasi&lt;br&gt;Kebijakan Margin&lt;br&gt;&lt;/font&gt;" style="text;html=1;strokeColor=none;fillColor=none;align=center;verticalAlign=middle;whiteSpace=wrap;rounded=0;sketch=0;fontStyle=1" vertex="1" parent="1">
          <mxGeometry x="645" y="290" width="155" height="50" as="geometry" />
        </mxCell>
        <mxCell id="UEV6acI5vKv-Rn__tow0-35" value="" style="endArrow=classic;html=1;exitX=0.059;exitY=0.579;exitDx=0;exitDy=0;exitPerimeter=0;" edge="1" parent="1" source="UEV6acI5vKv-Rn__tow0-2">
          <mxGeometry width="50" height="50" relative="1" as="geometry">
            <mxPoint x="370" y="320" as="sourcePoint" />
            <mxPoint x="70" y="390" as="targetPoint" />
            <Array as="points">
              <mxPoint x="170" y="270" />
              <mxPoint x="170" y="390" />
            </Array>
          </mxGeometry>
        </mxCell>
        <mxCell id="UEV6acI5vKv-Rn__tow0-36" value="&lt;font style=&quot;font-size: 18px&quot;&gt;Data Pembelian&lt;/font&gt;" style="text;html=1;strokeColor=none;fillColor=none;align=center;verticalAlign=middle;whiteSpace=wrap;rounded=0;sketch=0;fontStyle=1" vertex="1" parent="1">
          <mxGeometry x="20" y="310" width="160" height="50" as="geometry" />
        </mxCell>
        <mxCell id="UEV6acI5vKv-Rn__tow0-37" value="" style="endArrow=classic;html=1;entryX=0.029;entryY=0.684;entryDx=0;entryDy=0;entryPerimeter=0;" edge="1" parent="1" target="UEV6acI5vKv-Rn__tow0-2">
          <mxGeometry width="50" height="50" relative="1" as="geometry">
            <mxPoint x="80" y="420" as="sourcePoint" />
            <mxPoint x="420" y="270" as="targetPoint" />
            <Array as="points">
              <mxPoint x="200" y="420" />
              <mxPoint x="200" y="290" />
            </Array>
          </mxGeometry>
        </mxCell>
        <mxCell id="UEV6acI5vKv-Rn__tow0-38" value="&lt;font style=&quot;font-size: 18px&quot;&gt;Data Transaksi&lt;/font&gt;" style="text;html=1;strokeColor=none;fillColor=none;align=center;verticalAlign=middle;whiteSpace=wrap;rounded=0;sketch=0;fontStyle=1" vertex="1" parent="1">
          <mxGeometry x="100" y="420" width="170" height="50" as="geometry" />
        </mxCell>
      </root>
    </mxGraphModel>
  </diagram>
</mxfile>
